<svg width="324" height="512" viewBox="0 0 324 512" fill="none" xmlns="http://www.w3.org/2000/svg">
<path d="M63.24 510.52L2.48 449.81C2.00681 449.345 1.631 448.79 1.37447 448.178C1.11793 447.566 0.985809 446.909 0.985809 446.245C0.985809 445.581 1.11793 444.924 1.37447 444.312C1.631 443.7 2.00681 443.145 2.48 442.68L185.74 259.56C186.212 259.095 186.586 258.541 186.842 257.929C187.097 257.318 187.229 256.662 187.229 256C187.229 255.338 187.097 254.682 186.842 254.071C186.586 253.459 186.212 252.905 185.74 252.44L2.48 69.32C2.00681 68.8547 1.631 68.2998 1.37447 67.6878C1.11793 67.0757 0.985809 66.4187 0.985809 65.755C0.985809 65.0914 1.11793 64.4344 1.37447 63.8223C1.631 63.2102 2.00681 62.6553 2.48 62.19L63.24 1.48002C63.7053 1.00684 64.2602 0.631022 64.8723 0.37449C65.4843 0.117957 66.1413 -0.0141602 66.805 -0.0141602C67.4686 -0.0141602 68.1257 0.117957 68.7377 0.37449C69.3498 0.631022 69.9047 1.00684 70.37 1.48002L321.52 252.48C321.992 252.945 322.366 253.499 322.622 254.111C322.877 254.722 323.009 255.378 323.009 256.04C323.009 256.702 322.877 257.358 322.622 257.969C322.366 258.581 321.992 259.135 321.52 259.6L70.37 510.6C69.8994 511.068 69.3403 511.438 68.7253 511.687C68.1104 511.937 67.4519 512.062 66.7882 512.054C66.1246 512.047 65.469 511.907 64.8598 511.644C64.2506 511.381 63.7 510.998 63.24 510.52V510.52Z" fill="#560372"/>
</svg>
