<svg width="21" height="20" viewBox="0 0 21 20" fill="none" xmlns="http://www.w3.org/2000/svg">
<path d="M10.5 0.833328C4.74692 0.833328 0.083374 4.93724 0.083374 9.99999C0.083374 14.0732 3.10473 17.5217 7.28129 18.7157H13.7188C17.8954 17.5217 20.9167 14.0732 20.9167 9.99999C20.9167 4.93724 16.2532 0.833328 10.5 0.833328Z" fill="url(#paint0_linear_117_594)"/>
<path d="M17.5 9.94678C17.5 8.91154 17.0694 8.05288 16.3342 7.37975C16.4141 7.2341 16.4972 7.03871 16.5385 6.79312C16.6332 6.23293 16.5214 5.89681 16.4267 5.56786C16.332 5.23892 16.2202 5.00767 16.2202 5.00767C16.2202 5.00767 15.7125 4.96555 15.2824 5.08475C14.8523 5.20396 14.4823 5.29494 13.9487 5.55397C13.6992 5.67497 13.4481 5.80763 13.2493 5.91518C12.3996 5.72337 11.4651 5.62478 10.4822 5.62478C9.4904 5.62478 8.54764 5.72382 7.69189 5.91698C7.49255 5.80897 7.23979 5.67542 6.98868 5.55352C6.45507 5.29449 6.08502 5.20352 5.65494 5.08431C5.22486 4.9651 4.71714 5.00722 4.71714 5.00722C4.71714 5.00722 4.60535 5.23847 4.51063 5.56742C4.41592 5.89636 4.30413 6.23248 4.39884 6.79267C4.44125 7.04453 4.52715 7.24351 4.6092 7.39006C3.88782 8.05915 3.4649 8.91244 3.4649 9.94633C3.4649 12.6276 5.24468 13.8515 8.48762 14.1747C8.10931 14.5 7.85544 14.9168 7.77009 15.3806C7.55698 15.4568 7.31137 15.5285 7.07513 15.5572C6.46719 15.6321 5.82455 15.5572 5.51507 15.408C5.20559 15.2588 4.83828 14.9226 4.56295 14.5955C4.33056 14.3194 3.9952 13.999 3.69122 13.8861C3.28978 13.7368 2.89935 13.6808 2.68183 13.7086C2.46377 13.7368 2.36079 13.8672 2.4065 13.9609C2.4522 14.0541 2.67027 14.1944 2.8999 14.297C3.12953 14.3996 3.48527 14.6797 3.69177 14.9504C3.92196 15.2525 3.96711 15.4268 4.16205 15.7719C4.29917 16.0148 4.76835 16.3182 5.10261 16.4813C5.38951 16.6216 5.96277 16.7014 6.58283 16.7242C6.79704 16.7323 7.30311 16.6812 7.72989 16.6319V18.3125C7.72989 18.5988 7.40774 18.8166 7.07403 18.7665C8.1451 19.0595 9.28886 19.2083 10.4822 19.2083C11.6749 19.2083 12.8187 19.0595 13.8909 18.7673C13.5577 18.8171 13.2356 18.5993 13.2356 18.3129V15.7118C13.2356 15.1162 12.9454 14.578 12.4795 14.1769C15.6987 13.8623 17.5 12.6675 17.5 9.94678ZM3.45498 14.1563C3.37018 14.1209 3.32447 14.0555 3.35311 14.0093C3.38174 13.9631 3.47426 13.9546 3.55906 13.99C3.64387 14.0254 3.68957 14.0909 3.66094 14.137C3.6323 14.1832 3.53979 14.1917 3.45498 14.1563ZM4.1224 14.4946C4.0778 14.5341 3.98198 14.5215 3.90819 14.4669C3.8344 14.4122 3.81072 14.3356 3.85533 14.2961C3.89993 14.2567 3.99575 14.2692 4.06954 14.3239C4.14333 14.3786 4.16701 14.4552 4.1224 14.4946ZM4.53761 15.0548C4.48145 15.0871 4.38618 15.0571 4.32505 14.9876C4.26393 14.9182 4.26007 14.8352 4.31624 14.803C4.37241 14.7707 4.46768 14.8007 4.5288 14.8702C4.58938 14.9397 4.59378 15.0226 4.53761 15.0548ZM5.134 15.4766C5.096 15.5267 4.98807 15.529 4.89335 15.4819C4.79864 15.4349 4.75238 15.356 4.79038 15.3058C4.82837 15.2556 4.9363 15.2534 5.03102 15.3004C5.12574 15.3475 5.17199 15.4264 5.134 15.4766ZM5.69789 15.8893C5.5806 15.8777 5.49359 15.818 5.5035 15.7562C5.51286 15.6944 5.61584 15.654 5.73258 15.6657C5.84988 15.6773 5.93688 15.7369 5.92697 15.7988C5.91761 15.8602 5.81519 15.901 5.69789 15.8893ZM6.60706 15.9964C6.48205 15.9906 6.38459 15.9323 6.38954 15.8669C6.3945 15.8015 6.49968 15.7526 6.62468 15.7584C6.74968 15.7643 6.84715 15.8225 6.8422 15.888C6.83724 15.9538 6.73206 16.0022 6.60706 15.9964ZM7.46501 15.9265C7.33175 15.9265 7.22382 15.87 7.22382 15.8006C7.22382 15.7311 7.33175 15.6746 7.46501 15.6746C7.59828 15.6746 7.70621 15.7311 7.70621 15.8006C7.70621 15.87 7.59773 15.9265 7.46501 15.9265Z" fill="white"/>
<defs>
<linearGradient id="paint0_linear_117_594" x1="0.083374" y1="9.77449" x2="20.9167" y2="9.77449" gradientUnits="userSpaceOnUse">
<stop offset="0.9998" stop-color="#9900CC"/>
<stop offset="0.9999" stop-color="#343337"/>
<stop offset="1" stop-color="#343434"/>
</linearGradient>
</defs>
</svg>
